<svg aria-hidden="true" style="position: absolute; width: 0; height: 0; overflow: hidden;" version="1.1" xmlns="http://www.w3.org/2000/svg" xmlns:xlink="http://www.w3.org/1999/xlink">
<defs>
<symbol id="icon-check-circle" viewBox="0 0 32 32">
<path d="M14.133 22.133l9.4-9.4-1.867-1.867-7.533 7.533-3.8-3.8-1.867 1.867 5.667 5.667zM16 29.333q-2.767 0-5.2-1.050t-4.233-2.85-2.85-4.233-1.050-5.2 1.050-5.2 2.85-4.233 4.233-2.85 5.2-1.050 5.2 1.050 4.233 2.85 2.85 4.233 1.050 5.2-1.050 5.2-2.85 4.233-4.233 2.85-5.2 1.050zM16 26.667q4.467 0 7.567-3.1t3.1-7.567-3.1-7.567-7.567-3.1-7.567 3.1-3.1 7.567 3.1 7.567 7.567 3.1z"></path>
</symbol>
</defs>
</svg>
